<svg xmlns="http://www.w3.org/2000/svg" xmlns:xlink="http://www.w3.org/1999/xlink" width="500" zoomAndPan="magnify" viewBox="0 0 375 374.999991" height="500" preserveAspectRatio="xMidYMid meet" version="1.0"><defs><g/><clipPath id="6c3e2781c3"><path d="M 0 0 L 375 0 L 375 375 L 0 375 Z M 0 0 " clip-rule="nonzero"/></clipPath><clipPath id="64d046b765"><rect x="0" width="375" y="0" height="375"/></clipPath><clipPath id="7351449ca3"><rect x="0" width="220" y="0" height="312"/></clipPath><clipPath id="f6fb39c455"><path d="M 210.492188 167.402344 L 353.742188 167.402344 L 353.742188 322.652344 L 210.492188 322.652344 Z M 210.492188 167.402344 " clip-rule="nonzero"/></clipPath><clipPath id="9afafcfff7"><path d="M 0.492188 0.402344 L 143.460938 0.402344 L 143.460938 155.652344 L 0.492188 155.652344 Z M 0.492188 0.402344 " clip-rule="nonzero"/></clipPath><clipPath id="75c05e7411"><rect x="0" width="144" y="0" height="156"/></clipPath></defs><g transform="matrix(1, 0, 0, 1, 0, 0)"><g clip-path="url(#64d046b765)"><g clip-path="url(#6c3e2781c3)"><rect x="-82.5" width="540" fill="#000000" height="539.999987" y="-82.499998" fill-opacity="1"/></g></g></g><g transform="matrix(1, 0, 0, 1, 12, 58)"><g clip-path="url(#7351449ca3)"><g fill="#ffffff" fill-opacity="1"><g transform="translate(0.876603, 255.947527)"><g><path d="M 111.890625 -234.34375 C 136.546875 -234.34375 156.125 -228.070312 170.625 -215.53125 C 185.132812 -203 192.390625 -185.234375 192.390625 -162.234375 C 192.390625 -145.035156 187.828125 -130.476562 178.703125 -118.5625 C 169.585938 -106.65625 157.054688 -99.144531 141.109375 -96.03125 L 214.765625 0 L 138.921875 0 L 81.421875 -90.125 L 80.8125 -90.125 L 80.8125 0 L 19.890625 0 L 19.890625 -234.34375 Z M 80.8125 -129.296875 L 86.09375 -129.296875 C 101.007812 -129.296875 111.882812 -131.675781 118.71875 -136.4375 C 125.5625 -141.207031 128.984375 -148.5625 128.984375 -158.5 C 128.984375 -168.445312 125.613281 -175.800781 118.875 -180.5625 C 112.144531 -185.332031 101.21875 -187.71875 86.09375 -187.71875 L 80.8125 -187.71875 Z M 80.8125 -129.296875 "/></g></g></g></g></g><g clip-path="url(#f6fb39c455)"><g transform="matrix(1, 0, 0, 1, 210, 167)"><g clip-path="url(#75c05e7411)"><g clip-path="url(#9afafcfff7)"><path fill="#ffffff" d="M 143.738281 72.097656 L 114.625 72.097656 C 114.625 72.050781 114.628906 72.003906 114.628906 71.957031 C 114.628906 48.453125 95.574219 29.402344 72.074219 29.402344 C 48.574219 29.402344 29.523438 48.453125 29.523438 71.957031 C 29.523438 95.457031 48.574219 114.507812 72.074219 114.507812 C 75.78125 114.507812 79.371094 114.023438 82.796875 113.132812 L 82.796875 102.96875 L 120.132812 129.3125 L 82.796875 155.652344 L 82.796875 142.972656 C 79.265625 143.507812 75.65625 143.792969 71.976562 143.792969 C 32.34375 143.792969 0.214844 111.660156 0.214844 72.027344 C 0.214844 32.394531 32.34375 0.261719 71.976562 0.261719 C 111.609375 0.261719 143.742188 32.394531 143.742188 72.027344 C 143.742188 72.050781 143.738281 72.074219 143.738281 72.097656 " fill-opacity="1" fill-rule="nonzero"/></g></g></g></g></svg>
